<?xml version="1.0" standalone="no"?><!DOCTYPE svg PUBLIC "-//W3C//DTD SVG 1.1//EN" "http://www.w3.org/Graphics/SVG/1.1/DTD/svg11.dtd"><svg t="1592125594250" class="icon" viewBox="0 0 1024 1024" version="1.1" xmlns="http://www.w3.org/2000/svg" p-id="2771" width="24" height="24" xmlns:xlink="http://www.w3.org/1999/xlink"><defs><style type="text/css"></style></defs><path d="M512 64C264.6 64 64 264.6 64 512s200.6 448 448 448 448-200.6 448-448S759.4 64 512 64z m0 832.8c-212.5 0-384.8-172.3-384.8-384.8S299.5 127.2 512 127.2 896.8 299.5 896.8 512 724.5 896.8 512 896.8z" fill="#0099CC" p-id="2772"></path><path d="M270.1 390.1c42.3 30.4 78.2 61.2 107.8 92.4l-30.8 30.8c-24.7-28.3-60.6-59.3-107.8-93l30.8-30.2z m107.8 177.4c-26.3 79.3-55.8 154-88.7 224.2L247.9 774c34.9-72.3 65.3-146 91.2-221.2l38.8 14.7z m-91.8-324.6c41.1 28.8 77 58.8 107.8 90l-30.8 30.8c-26.7-28.7-62.7-58.9-107.8-90.6l30.8-30.2z m115.2 154.6h390.6v43.1H542.4c-7.4 38.6-14.4 70.6-20.9 96.1h226.1c-2.5 137.6-14 214.8-34.6 231.6-16.8 15.2-53.6 23-110.3 23.4h-43.1l-13-42.5 57.9 0.7c38.6-0.4 63.4-5.4 74.6-14.8 13.1-10.7 20.9-63.4 23.4-158.4H467.9c11.9-47.2 22-92.6 30.2-136.1h-96.7v-43.1z m36.4-134.3h323.5v41.9H437.7v-41.9z" fill="#0099CC" p-id="2773"></path></svg>