<?xml version="1.0" standalone="no"?><!DOCTYPE svg PUBLIC "-//W3C//DTD SVG 1.1//EN" "http://www.w3.org/Graphics/SVG/1.1/DTD/svg11.dtd"><svg t="1589532086641" class="icon" viewBox="0 0 1024 1024" version="1.1" xmlns="http://www.w3.org/2000/svg" p-id="2428" xmlns:xlink="http://www.w3.org/1999/xlink" width="40" height="40"><defs><style type="text/css"></style></defs><path d="M843.294118 90.352941h90.352941a60.235294 60.235294 0 0 1 60.235294 60.235294v722.82353a60.235294 60.235294 0 0 1-60.235294 60.235294h-90.352941V90.352941z m0 60.235294v722.82353h90.352941V150.588235h-90.352941z" p-id="2429"></path><path d="M90.352941 0h722.82353a60.235294 60.235294 0 0 1 60.235294 60.235294v903.529412a60.235294 60.235294 0 0 1-60.235294 60.235294H90.352941a60.235294 60.235294 0 0 1-60.235294-60.235294V60.235294a60.235294 60.235294 0 0 1 60.235294-60.235294z m0 60.235294v903.529412h722.82353V60.235294H90.352941z" p-id="2430"></path><path d="M271.058824 361.411765a120.470588 120.470588 0 1 0 0-240.941177 120.470588 120.470588 0 0 0 0 240.941177z m0-60.235294a60.235294 60.235294 0 1 1 0-120.470589 60.235294 60.235294 0 0 1 0 120.470589zM271.058824 903.529412a120.470588 120.470588 0 1 0 0-240.941177 120.470588 120.470588 0 0 0 0 240.941177z m0-60.235294a60.235294 60.235294 0 1 1 0-120.470589 60.235294 60.235294 0 0 1 0 120.470589zM632.470588 361.411765a120.470588 120.470588 0 1 0 0-240.941177 120.470588 120.470588 0 0 0 0 240.941177z m0-60.235294a60.235294 60.235294 0 1 1 0-120.470589 60.235294 60.235294 0 0 1 0 120.470589zM632.470588 903.529412a120.470588 120.470588 0 1 0 0-240.941177 120.470588 120.470588 0 0 0 0 240.941177z m0-60.235294a60.235294 60.235294 0 1 1 0-120.470589 60.235294 60.235294 0 0 1 0 120.470589z" p-id="2431"></path></svg>