<?xml version="1.0" standalone="no"?><!DOCTYPE svg PUBLIC "-//W3C//DTD SVG 1.1//EN" "http://www.w3.org/Graphics/SVG/1.1/DTD/svg11.dtd"><svg t="1591279758026" class="icon" viewBox="0 0 1799 1024" version="1.1" xmlns="http://www.w3.org/2000/svg" p-id="6866" xmlns:xlink="http://www.w3.org/1999/xlink" width="70.2734375" height="40"><defs><style type="text/css"></style></defs><path d="M533.265946 3.247867l-462.005736 462.005736 4.453067-231.559502a10.943413 10.943413 0 0 0-10.93228-10.93228H17.378095a10.943413 10.943413 0 0 0-10.943413 10.943413l-5.566334 291.46439v2.549381l-0.857215 44.953715a12.535385 12.535385 0 0 0 11.789495 11.789495l46.534554-0.857215h0.901746l291.520053-5.566334a10.93228 10.93228 0 0 0 10.943413-10.943413v-47.4363a10.943413 10.943413 0 0 0-10.943413-10.943413l-229.332967 4.364006 460.892469-460.892469a10.93228 10.93228 0 0 0 0-15.474409l-33.509332-33.509332a10.93228 10.93228 0 0 0-15.463276 0z m0 0" p-id="6867" fill="#0099CC"></path></svg>