<?xml version="1.0" standalone="no"?><!DOCTYPE svg PUBLIC "-//W3C//DTD SVG 1.1//EN" "http://www.w3.org/Graphics/SVG/1.1/DTD/svg11.dtd"><svg t="1591277854994" class="icon" viewBox="0 0 1024 1024" version="1.1" xmlns="http://www.w3.org/2000/svg" p-id="10806" xmlns:xlink="http://www.w3.org/1999/xlink" width="40" height="40"><defs><style type="text/css"></style></defs><path d="M928 544H182.4l185.6 172.8c12.8 9.6 12.8 25.6 3.2 38.4l-3.2 3.2c-12.8 12.8-32 12.8-44.8 0l-246.4-224c-12.8-9.6-16-28.8-3.2-41.6l3.2-3.2 246.4-224c12.8-12.8 32-12.8 44.8 0 12.8 9.6 12.8 25.6 3.2 38.4l-3.2 3.2L182.4 480H928c16 0 32 12.8 32 28.8v3.2c0 16-16 28.8-32 32z" fill="#0099CC" p-id="10807"></path></svg>