<?xml version="1.0" standalone="no"?><!DOCTYPE svg PUBLIC "-//W3C//DTD SVG 1.1//EN" "http://www.w3.org/Graphics/SVG/1.1/DTD/svg11.dtd"><svg t="1591277429576" class="icon" viewBox="0 0 1024 1024" version="1.1" xmlns="http://www.w3.org/2000/svg" p-id="4150" xmlns:xlink="http://www.w3.org/1999/xlink" width="40" height="40"><defs><style type="text/css"></style></defs><path d="M511.997129 1024C229.67956 1024 0.020668 794.338812 0.020668 512.020094S229.67956 0 511.997129 0s511.982202 229.658892 511.982203 511.978757-229.662336 512.020094-511.982203 512.020095z m0-943.812064c-238.121483-0.002296-431.833307 193.70723-431.833306 431.834455s193.709527 431.832158 431.834455 431.832158 431.790821-193.709527 431.790821-431.834455S750.122057 80.185639 511.997129 80.185639z" p-id="4151" fill="#669933"></path><path d="M574.831585 195.121872a33.468 33.468 0 0 1-33.381881-33.383029V56.206765a33.383029 33.383029 0 1 1 66.764911 0v105.532078a33.482927 33.482927 0 0 1-33.381881 33.383029z m-130.922149 0.854297a33.468 33.468 0 0 1-33.384177-33.381881V57.061062a33.383029 33.383029 0 0 1 66.76491 0v105.532078a33.468 33.468 0 0 1-33.383029 33.381881zM574.831585 1001.215304a33.468 33.468 0 0 1-33.381881-33.383029V862.300197a33.383029 33.383029 0 1 1 66.764911 0v105.532078a33.510485 33.510485 0 0 1-33.38303 33.383029z m-130.922149-1.025385a33.468 33.468 0 0 1-33.384177-33.38303v-105.532077a33.383029 33.383029 0 1 1 66.76491 0v105.532077a33.456517 33.456517 0 0 1-33.380733 33.38303z m-246.927401-561.516496a33.482927 33.482927 0 0 1-33.383029 33.38303H58.06578a33.383029 33.383029 0 0 1 0-66.764911h105.532077a33.468 33.468 0 0 1 33.381882 33.383029z m-2.863732 130.879664a33.484075 33.484075 0 0 1-33.381881 33.383029H55.202048a33.383029 33.383029 0 0 1 0-66.76491h105.533226a33.455369 33.455369 0 0 1 33.381881 33.380733z m805.066898-130.879664a33.482927 33.482927 0 0 1-33.383029 33.38303h-105.53093a33.383029 33.383029 0 1 1 0-66.764911h105.532078a33.468 33.468 0 0 1 33.381881 33.381881z m3.248395 130.879664a33.484075 33.484075 0 0 1-33.383029 33.383029h-105.532078a33.383029 33.383029 0 0 1 0-66.76491h105.532078a33.455369 33.455369 0 0 1 33.383029 33.380733z" p-id="4152" fill="#669933"></path><path d="M379.581109 283.600163c-46.718788 68.772049-76.553729 111.602867-76.553729 153.149944 0 40.220849 32.441466 72.662315 72.662315 75.269987 18.165292-33.725208 42.82967-71.382018 71.382018-114.209391-11.668502-31.161169-35.005505-66.210307-67.490604-114.21054z m264.793 57.106992c-32.441466 47.996788-55.82325 83.049371-67.491752 114.209392 27.269754 41.54478 46.718788 77.87766 58.388438 112.926798a75.013928 75.013928 0 0 0 85.65934-73.987394c-0.002296-41.548225-29.837238-84.375598-76.556026-153.148796zM378.297367 627.510931a113.271273 113.271273 0 0 0 114.209392 112.929095c63.602634 0 114.211688-50.609054 114.211688-112.929095s-44.109967-127.197231-114.21054-229.700228c-68.773197 102.502998-114.21054 166.099891-114.21054 229.700228z" p-id="4153" fill="#669933"></path></svg>