<?xml version="1.0" standalone="no"?><!DOCTYPE svg PUBLIC "-//W3C//DTD SVG 1.1//EN" "http://www.w3.org/Graphics/SVG/1.1/DTD/svg11.dtd"><svg t="1591279177537" class="icon" viewBox="0 0 1024 1024" version="1.1" xmlns="http://www.w3.org/2000/svg" p-id="5322" xmlns:xlink="http://www.w3.org/1999/xlink" width="40" height="40"><defs><style type="text/css"></style></defs><path d="M877.255 338.746l-320-320c-24.992-24.993-65.51600001-24.994-90.508 0l-320 320c-24.992 24.993-24.992 65.516 0 90.51 24.992 24.996 65.516 24.996 90.508 0l210.746-210.75 1e-8 741.493c0 35.34399999 28.652 64 63.99999999 64 35.345 0 64-28.656 64-64l0-741.493 210.746 210.746c12.496 12.497 28.876 18.748 45.254 18.748 16.37700001 0 32.757-6.248 45.253-18.744 24.994-24.99800001 24.994-65.51600001 0-90.51z" p-id="5323" fill="#0099CC"></path></svg>