<?xml version="1.0" standalone="no"?><!DOCTYPE svg PUBLIC "-//W3C//DTD SVG 1.1//EN" "http://www.w3.org/Graphics/SVG/1.1/DTD/svg11.dtd"><svg t="1593674483882" class="icon" viewBox="0 0 1024 1024" version="1.1" xmlns="http://www.w3.org/2000/svg" p-id="2127" width="24" height="24" xmlns:xlink="http://www.w3.org/1999/xlink"><defs><style type="text/css"></style></defs><path d="M34.133333 955.733333h955.733334a34.133333 34.133333 0 1 1 0 68.266667H34.133333a34.133333 34.133333 0 1 1 0-68.266667z m136.533334-575.419733C170.666667 357.034667 184.32 341.333333 204.8 341.333333s34.133333 15.633067 34.133333 38.980267v468.1728c0 23.3472-13.653333 38.980267-34.133333 38.980267s-34.133333-15.633067-34.133333-38.980267V380.245333z m204.8 0C375.466667 357.034667 389.12 341.333333 409.6 341.333333s34.133333 15.633067 34.133333 38.980267v468.1728c0 23.3472-13.653333 38.980267-34.133333 38.980267s-34.133333-15.633067-34.133333-38.980267V380.245333z m204.8 0C580.266667 357.034667 593.92 341.333333 614.4 341.333333s34.133333 15.633067 34.133333 38.980267v468.1728c0 23.3472-13.653333 38.980267-34.133333 38.980267s-34.133333-15.633067-34.133333-38.980267V380.245333z m204.8 0c0-23.3472 13.653333-38.980267 34.133333-38.980267s34.133333 15.633067 34.133333 38.980267v468.1728c0 23.3472-13.653333 38.980267-34.133333 38.980267s-34.133333-15.633067-34.133333-38.980267V380.245333zM512 0L1024 264.533333H0L512 0z" p-id="2128" fill="#0099CC"></path></svg>