<?xml version="1.0" encoding="utf-8"?>
<!-- Generator: Adobe Illustrator 21.0.0, SVG Export Plug-In . SVG Version: 6.00 Build 0)  -->
<svg version="1.1" id="图层_1" xmlns="http://www.w3.org/2000/svg" xmlns:xlink="http://www.w3.org/1999/xlink" x="0px" y="0px"
	 viewBox="0 0 288 144" style="enable-background:new 0 0 288 144;" xml:space="preserve">
<style type="text/css">
	.st0{fill:#666666;}
	.st1{font-family:'MicrosoftYaHeiLight';}
	.st2{font-size:10px;}
	.st3{font-size:10.0415px;}
	.st4{fill:#DCDBDC;}
	.st5{fill:#333333;}
	.st6{fill:url(#SVGID_1_);}
	.st7{fill:url(#SVGID_2_);}
	.st8{fill:#109110;stroke:#FFFFFF;stroke-linecap:square;stroke-miterlimit:10;}
	.st9{fill:#FDFDFD;}
	.st10{fill:url(#SVGID_3_);}
	.st11{fill:url(#SVGID_4_);}
	.st12{fill:url(#SVGID_5_);}
	.st13{fill:url(#SVGID_6_);}
	.st14{fill:#333333;stroke:#666666;stroke-width:0.5;stroke-miterlimit:10;}
	.st15{fill:#FFFFFF;stroke:#FFFFFF;stroke-miterlimit:10;}
	.st16{fill:url(#SVGID_7_);}
	.st17{fill:url(#SVGID_8_);}
	.st18{fill:url(#SVGID_9_);}
</style>
<g>
	<g>
		<g>
			<text transform="matrix(1 0 0 1 145.9199 55.1549)"><tspan x="0" y="0" class="st0 st1 st2">二回压力</tspan><tspan x="40" y="0" class="st0 st1 st3">              MPa</tspan></text>
		</g>
	</g>
	<rect x="189.7" y="44" class="st4" width="35.3" height="14.1"/>
</g>
<g>
	<g>
		<text transform="matrix(1 0 0 1 145.9199 133.9999)"><tspan x="0" y="0" class="st0 st1 st2">水泵频率</tspan><tspan x="40" y="0" class="st0 st1 st3">              HZ</tspan></text>
	</g>
</g>
<rect x="189.7" y="122.8" class="st4" width="35.3" height="14.1"/>
<rect x="197" y="93.9" class="st5" width="7" height="7"/>
<rect x="205" y="91.4" class="st0" width="3" height="12"/>
<rect x="165" y="93.9" class="st5" width="7" height="7"/>
<rect x="161" y="91.4" class="st0" width="3" height="12"/>
<linearGradient id="SVGID_1_" gradientUnits="userSpaceOnUse" x1="-539.0215" y1="100.8925" x2="-539.0215" y2="93.8925" gradientTransform="matrix(-1 0 0 1 -393 0)">
	<stop  offset="0" style="stop-color:#666666"/>
	<stop  offset="0.3452" style="stop-color:#C5C5C5"/>
	<stop  offset="0.5255" style="stop-color:#F2F2F2"/>
	<stop  offset="0.8372" style="stop-color:#939393"/>
	<stop  offset="1" style="stop-color:#666666"/>
</linearGradient>
<rect x="131" y="93.9" class="st6" width="30" height="7"/>
<linearGradient id="SVGID_2_" gradientUnits="userSpaceOnUse" x1="-623.5108" y1="100.8925" x2="-623.5108" y2="93.8925" gradientTransform="matrix(-1 0 0 1 -393 0)">
	<stop  offset="0" style="stop-color:#666666"/>
	<stop  offset="0.3452" style="stop-color:#C5C5C5"/>
	<stop  offset="0.5255" style="stop-color:#F2F2F2"/>
	<stop  offset="0.8372" style="stop-color:#939393"/>
	<stop  offset="1" style="stop-color:#666666"/>
</linearGradient>
<rect x="209" y="93.9" class="st7" width="43" height="7"/>
<circle class="st5" cx="184.6" cy="97.8" r="14.4"/>
<g>
	<polygon class="st8" points="173,97.8 173,97.2 173.1,96.6 173.2,96 173.3,95.4 173.4,94.8 173.6,94.2 173.8,93.6 174,93.1 
		174.3,92.5 174.6,92 174.9,91.5 175.2,91 175.6,90.5 176,90 176.4,89.6 176.9,89.2 177.3,88.8 177.8,88.4 178.3,88.1 178.8,87.8 
		179.4,87.5 179.9,87.2 180.5,87 181,86.8 181.6,86.6 182.2,86.5 182.8,86.3 183.4,86.3 184,86.2 184.6,86.2 185.2,86.2 185.8,86.3 
		186.4,86.3 187,86.5 187.6,86.6 188.2,86.8 188.8,87 189.3,87.2 189.9,87.5 190.4,87.8 190.9,88.1 191.4,88.4 191.9,88.8 
		192.4,89.2 192.8,89.6 193.2,90 193.6,90.5 194,91 194.3,91.5 194.7,92 194.9,92.5 195.2,93.1 195.4,93.6 195.6,94.2 195.8,94.8 
		196,95.4 196.1,96 196.1,96.6 196.2,97.2 196.2,97.8 196.2,98.4 196.1,99 196.1,99.6 196,100.2 195.8,100.8 195.6,101.4 195.4,102 
		195.2,102.5 194.9,103.1 194.7,103.6 194.3,104.1 194,104.6 193.6,105.1 193.2,105.6 192.8,106 192.4,106.4 191.9,106.8 
		191.4,107.2 190.9,107.5 190.4,107.8 189.9,108.1 189.3,108.4 188.8,108.6 188.2,108.8 187.6,109 187,109.1 186.4,109.3 
		185.8,109.3 185.2,109.4 184.6,109.4 184,109.4 183.4,109.3 182.8,109.3 182.2,109.1 181.6,109 181,108.8 180.5,108.6 179.9,108.4 
		179.4,108.1 178.8,107.8 178.3,107.5 177.8,107.2 177.3,106.8 176.9,106.4 176.4,106 176,105.6 175.6,105.1 175.2,104.6 
		174.9,104.1 174.6,103.6 174.3,103.1 174,102.5 173.8,102 173.6,101.4 173.4,100.8 173.3,100.2 173.2,99.6 173.1,99 173,98.4 
		173,97.8 	"/>
</g>
<g>
	<polygon class="st9" points="185.5,93.1 185.5,93.2 185.3,93.5 185.1,93.9 184.9,94.2 184.7,94.6 184.6,95 184.5,95.4 184.5,95.9 
		184.5,96.3 184.5,96.3 184.5,96.3 184.4,96.3 184.4,96.3 184.4,96.3 184.4,95.9 184.5,95.4 184.6,95 184.7,94.6 184.8,94.2 
		185,93.8 185.2,93.5 185.5,93.2 185.5,93.1 185.5,93.1 185.5,93.1 	"/>
	<polygon class="st9" points="188.4,90.3 188.3,90.3 187.8,90.7 187.3,91.1 186.8,91.6 186.4,92.1 185.9,92.6 185.5,93.2 
		185.5,93.2 185.5,93.2 185.5,93.1 185.5,93.1 185.5,93.1 185.9,92.6 186.3,92.1 186.8,91.6 187.3,91.1 187.8,90.7 188.3,90.3 
		188.3,90.2 188.3,90.2 188.3,90.2 	"/>
	<polygon class="st9" points="190.8,90.1 190.8,90.1 190.8,90.2 190.8,90.2 190.5,90 190.3,89.9 190,89.9 189.7,89.9 189.4,89.9 
		189.1,89.9 188.8,90 188.6,90.1 188.3,90.3 188.3,90.3 188.3,90.3 188.3,90.3 188.3,90.2 188.3,90.2 188.6,90.1 188.8,90 
		189.1,89.9 189.4,89.8 189.7,89.8 190,89.8 190.3,89.9 190.6,90 190.8,90.1 190.8,90.1 	"/>
	<polygon class="st9" points="192.7,92.7 192.7,92.7 192.6,92.7 192.6,92.7 192.5,92.3 192.3,91.9 192.1,91.6 191.9,91.3 191.7,91 
		191.4,90.7 191.1,90.4 190.8,90.2 190.8,90.1 190.8,90.1 190.8,90.1 190.8,90.1 190.8,90.1 191.1,90.4 191.4,90.6 191.7,90.9 
		192,91.2 192.2,91.6 192.4,91.9 192.5,92.3 192.7,92.6 192.7,92.6 	"/>
	<polygon class="st9" points="192.7,92.8 192.7,93 192.7,93.1 192.6,93.3 192.5,93.4 192.4,93.5 192.3,93.6 192.2,93.6 192.2,93.6 
		192.2,93.6 192.2,93.6 192.2,93.5 192.4,93.5 192.5,93.4 192.6,93.2 192.6,93.1 192.6,93 192.6,92.8 192.6,92.7 192.6,92.6 
		192.7,92.6 192.7,92.6 192.7,92.6 192.7,92.7 	"/>
	<polygon class="st9" points="192.3,93.6 192.2,93.6 192.2,93.6 192,93.7 191.7,93.7 191.5,93.7 191.4,93.7 191.4,93.7 191.4,93.7 
		191.4,93.7 191.4,93.7 191.7,93.7 192,93.6 192.2,93.5 192.3,93.5 192.3,93.6 	"/>
	<rect x="189.2" y="93.7" class="st9" width="2.3" height="0.1"/>
	<polygon class="st9" points="189.3,93.7 189.2,93.7 188.8,93.8 188.4,93.8 188,93.9 187.7,94 187.3,94.2 187.3,94.2 187.2,94.2 
		187.2,94.2 187.3,94.2 187.3,94.2 187.6,94 188,93.9 188.4,93.8 188.8,93.7 189.2,93.7 189.2,93.7 189.3,93.7 189.3,93.7 	"/>
	<polygon class="st9" points="187.3,94.2 187.3,94.2 186.9,94.4 186.6,94.7 186.2,95 185.9,95.3 185.7,95.6 185.4,96 185.2,96.4 
		185.2,96.4 185.2,96.4 185.1,96.4 185.1,96.4 185.1,96.4 185.1,96.3 185.4,96 185.6,95.6 185.9,95.3 186.2,95 186.5,94.7 
		186.9,94.4 187.2,94.2 187.3,94.2 187.3,94.1 187.3,94.2 	"/>
	<polygon class="st9" points="189.1,96.2 189.1,96.2 189.1,96.3 189.1,96.3 188.7,96.2 188.2,96.2 187.8,96.3 187.4,96.3 187,96.4 
		186.6,96.6 186.2,96.7 185.9,96.9 185.8,96.9 185.8,96.9 185.8,96.9 185.8,96.9 185.8,96.8 186.2,96.7 186.6,96.5 187,96.4 
		187.4,96.3 187.8,96.2 188.2,96.2 188.7,96.2 189.1,96.2 189.1,96.2 	"/>
	<polygon class="st9" points="193,97.2 193,97.2 193,97.3 193,97.3 192.4,97 191.7,96.8 191.1,96.6 190.4,96.5 189.7,96.3 
		189.1,96.3 189.1,96.3 189.1,96.2 189.1,96.2 189.1,96.2 189.1,96.2 189.8,96.3 190.4,96.4 191.1,96.6 191.7,96.8 192.4,97 
		193,97.2 193,97.2 	"/>
	<polygon class="st9" points="194.4,99.4 194.4,99.4 194.3,99.4 194.3,99.3 194.3,99 194.2,98.8 194.1,98.5 194,98.2 193.9,98 
		193.7,97.8 193.5,97.6 193.2,97.4 193,97.3 193,97.3 193,97.2 193,97.2 193,97.2 193,97.2 193.3,97.4 193.5,97.5 193.7,97.7 
		193.9,98 194.1,98.2 194.2,98.5 194.3,98.7 194.3,99 194.4,99.3 194.4,99.3 	"/>
	<polygon class="st9" points="194.4,99.3 194.4,99.3 194.4,99.4 194.3,99.7 194.2,100.1 194.1,100.5 194,100.9 193.8,101.2 
		193.6,101.6 193.4,101.9 193.1,102.2 193.1,102.2 193.1,102.2 193.1,102.2 193,102.2 193.1,102.2 193.3,101.9 193.5,101.5 
		193.7,101.2 193.9,100.8 194.1,100.5 194.2,100.1 194.3,99.7 194.3,99.3 194.3,99.3 194.4,99.3 	"/>
	<polygon class="st9" points="193.1,102.2 193.1,102.2 193.1,102.2 193,102.3 192.8,102.4 192.7,102.4 192.5,102.5 192.4,102.4 
		192.2,102.4 192.1,102.3 192.1,102.3 192.1,102.3 192.1,102.3 192.1,102.3 192.1,102.3 192.2,102.3 192.4,102.4 192.5,102.4 
		192.7,102.4 192.8,102.3 192.9,102.3 193.1,102.2 193.1,102.1 193.1,102.2 	"/>
	<polygon class="st9" points="192.1,102.3 192.1,102.3 192.1,102.3 192.1,102.3 192.1,102.3 191.9,102.1 191.7,101.9 191.6,101.7 
		191.6,101.7 191.6,101.7 191.5,101.7 191.5,101.7 191.6,101.6 191.6,101.7 191.7,101.9 191.9,102.1 192.1,102.3 	"/>
	<polygon class="st9" points="191.6,101.7 191.6,101.7 191.6,101.7 191.6,101.7 191.6,101.7 191.5,101.7 190.4,99.8 190.4,99.8 
		190.5,99.7 190.5,99.7 190.5,99.8 190.5,99.8 190.5,99.8 191.6,101.7 	"/>
	<polygon class="st9" points="190.5,99.8 190.5,99.8 190.5,99.8 190.4,99.8 190.2,99.4 190,99.1 189.7,98.8 189.4,98.6 189.1,98.3 
		189,98.3 189.1,98.3 189.1,98.3 189.1,98.3 189.1,98.3 189.4,98.5 189.7,98.8 190,99.1 190.3,99.4 190.5,99.7 190.5,99.8 
		190.5,99.8 	"/>
	<polygon class="st9" points="189.1,98.3 189.1,98.3 189.1,98.3 189.1,98.3 188.7,98.1 188.3,98 187.9,97.8 187.4,97.7 187,97.6 
		186.6,97.6 186.2,97.6 186.1,97.6 186.1,97.6 186.1,97.6 186.1,97.5 186.1,97.5 186.1,97.5 186.1,97.5 186.6,97.5 187,97.6 
		187.4,97.7 187.9,97.8 188.3,97.9 188.7,98.1 189.1,98.3 189.1,98.3 	"/>
	<polygon class="st9" points="188.2,100.9 188.2,100.9 188.2,100.9 188.2,100.9 188,100.5 187.8,100.2 187.5,99.8 187.3,99.5 
		187,99.2 186.7,98.9 186.4,98.7 186,98.4 186,98.4 186,98.4 186,98.4 186,98.4 186,98.4 186.4,98.6 186.7,98.9 187,99.2 
		187.3,99.5 187.6,99.8 187.8,100.1 188,100.5 188.2,100.9 188.2,100.9 	"/>
	<polygon class="st9" points="189.3,104.8 189.3,104.8 189.2,104.8 189.2,104.8 189.2,104.1 189,103.5 188.9,102.8 188.7,102.2 
		188.4,101.5 188.2,100.9 188.2,100.9 188.2,100.9 188.2,100.9 188.2,100.9 188.2,100.9 188.5,101.5 188.7,102.1 188.9,102.8 
		189.1,103.4 189.2,104.1 189.3,104.8 189.3,104.8 	"/>
	<polygon class="st9" points="189.3,105.1 189.3,105.4 189.2,105.7 189.1,105.9 189,106.2 188.8,106.4 188.6,106.7 188.4,106.9 
		188.2,107 188.2,107 188.1,107 188.1,107 188.1,107 188.1,107 188.4,106.8 188.6,106.6 188.8,106.4 188.9,106.2 189.1,105.9 
		189.2,105.6 189.2,105.4 189.3,105.1 189.2,104.8 189.2,104.8 189.3,104.8 189.3,104.8 189.3,104.8 189.3,104.8 	"/>
	<polygon class="st9" points="188.2,107 188.2,107 188.1,107 187.8,107.2 187.4,107.3 187,107.4 186.6,107.4 186.2,107.5 
		185.8,107.5 185.4,107.4 185.1,107.4 185,107.4 185,107.4 185,107.3 185,107.3 185.1,107.3 185.4,107.4 185.8,107.4 186.2,107.4 
		186.6,107.4 187,107.3 187.4,107.2 187.8,107.1 188.1,107 188.2,107 188.2,107 	"/>
	<polygon class="st9" points="185.1,107.3 185.1,107.4 185.1,107.4 185,107.4 185,107.3 184.9,107.3 184.8,107.2 184.6,107.1 
		184.5,107 184.5,106.8 184.4,106.7 184.4,106.5 184.4,106.5 184.5,106.5 184.5,106.7 184.5,106.8 184.6,107 184.7,107.1 
		184.8,107.2 184.9,107.3 185.1,107.3 	"/>
	<polygon class="st9" points="184.8,105.8 184.8,105.8 184.6,106 184.6,106.3 184.5,106.5 184.5,106.6 184.4,106.5 184.4,106.5 
		184.4,106.5 184.4,106.5 184.5,106.3 184.6,106 184.7,105.8 184.7,105.7 184.7,105.7 	"/>
	<polygon class="st9" points="185.9,103.8 185.9,103.9 185.8,103.9 184.8,105.8 184.7,105.8 184.7,105.8 184.7,105.8 184.7,105.7 
		184.7,105.7 185.8,103.8 185.8,103.8 185.9,103.8 	"/>
	<polygon class="st9" points="186.4,101.9 186.4,101.9 186.4,101.9 186.4,102.3 186.3,102.7 186.2,103.1 186,103.5 185.9,103.8 
		185.9,103.9 185.8,103.9 185.8,103.9 185.8,103.9 185.8,103.8 186,103.5 186.1,103.1 186.3,102.7 186.3,102.3 186.4,101.9 
		186.4,101.9 186.4,101.9 	"/>
	<polygon class="st9" points="186.4,101.9 186.4,101.9 186.4,101.9 186.4,101.9 186.4,101.5 186.3,101 186.2,100.6 186.1,100.2 
		186,99.8 185.8,99.4 185.6,99 185.5,99 185.5,99 185.6,99 185.6,98.9 185.6,98.9 185.6,99 185.6,99 185.8,99.4 186,99.8 
		186.2,100.2 186.3,100.6 186.4,101 186.4,101.5 186.4,101.9 186.4,101.9 	"/>
	<polygon class="st9" points="184.8,99.3 184.8,99.3 184.8,99.7 184.7,100.2 184.6,100.6 184.5,101 184.4,101.4 184.2,101.8 
		184,102.1 183.8,102.4 183.7,102.5 183.7,102.5 183.7,102.5 183.7,102.4 183.9,102.1 184.1,101.7 184.3,101.3 184.5,101 
		184.6,100.6 184.7,100.1 184.7,99.7 184.8,99.3 184.8,99.3 184.8,99.3 184.8,99.3 	"/>
	<polygon class="st9" points="183.8,102.5 183.7,102.5 183.7,102.5 183.3,103 182.9,103.5 182.4,104 182,104.5 181.4,104.9 
		180.9,105.3 180.9,105.4 180.9,105.4 180.9,105.4 180.9,105.3 180.9,105.3 181.4,104.9 181.9,104.4 182.4,104 182.9,103.5 
		183.3,103 183.7,102.4 183.7,102.4 183.8,102.4 	"/>
	<polygon class="st9" points="180.9,105.3 180.9,105.4 180.9,105.4 180.7,105.5 180.4,105.6 180.1,105.7 179.8,105.8 179.5,105.8 
		179.2,105.8 179,105.7 178.7,105.6 178.4,105.5 178.4,105.5 178.4,105.5 178.4,105.5 178.4,105.4 178.4,105.4 178.7,105.6 
		179,105.6 179.2,105.7 179.5,105.7 179.8,105.7 180.1,105.7 180.4,105.6 180.6,105.5 180.9,105.3 180.9,105.3 180.9,105.3 	"/>
	<polygon class="st9" points="178.5,105.5 178.4,105.5 178.4,105.5 178.4,105.5 178.4,105.5 178.1,105.2 177.8,105 177.5,104.7 
		177.3,104.4 177.1,104 176.9,103.7 176.7,103.3 176.6,103 176.6,103 176.6,102.9 176.6,102.9 176.6,102.9 176.6,102.9 176.7,103.3 
		176.9,103.7 177.1,104 177.3,104.3 177.6,104.6 177.8,104.9 178.1,105.2 178.4,105.4 	"/>
	<polygon class="st9" points="177,102 177,102.1 176.9,102.1 176.8,102.2 176.7,102.4 176.6,102.5 176.6,102.6 176.6,102.8 
		176.6,102.9 176.6,103 176.6,103 176.6,103 176.6,103 176.6,102.9 176.5,102.8 176.5,102.6 176.6,102.5 176.6,102.3 176.7,102.2 
		176.8,102.1 177,102 177,102 177,102 177,102 	"/>
	<polygon class="st9" points="177.8,101.9 177.8,101.9 177.5,101.9 177.2,102 177,102.1 177,102.1 177,102 177,102 177,102 177,102 
		177.2,101.9 177.5,101.9 177.7,101.9 177.8,101.9 177.8,101.9 177.8,101.9 177.8,101.9 	"/>
	<polygon class="st9" points="180,101.9 180,101.9 180,101.9 177.8,101.9 177.7,101.9 177.7,101.9 177.8,101.9 180,101.9 180,101.9 
			"/>
	<polygon class="st9" points="182,101.4 182,101.4 181.9,101.4 181.6,101.6 181.2,101.7 180.8,101.8 180.4,101.9 180,101.9 
		180,101.9 180,101.9 180,101.9 180,101.9 179.9,101.9 180,101.9 180.4,101.8 180.8,101.8 181.2,101.7 181.6,101.6 181.9,101.4 
		182,101.4 182,101.4 	"/>
	<polygon class="st9" points="184.1,99.2 184.1,99.2 184.1,99.3 183.9,99.6 183.6,100 183.3,100.3 183,100.6 182.7,100.9 
		182.3,101.2 182,101.4 182,101.4 181.9,101.5 181.9,101.4 181.9,101.4 181.9,101.4 182.3,101.1 182.7,100.9 183,100.6 183.3,100.3 
		183.6,100 183.8,99.6 184,99.2 184.1,99.2 184.1,99.2 184.1,99.2 184.1,99.2 	"/>
	<polygon class="st9" points="183.4,98.7 183.4,98.7 183,98.9 182.6,99.1 182.2,99.2 181.8,99.3 181.4,99.4 181,99.4 180.6,99.4 
		180.2,99.4 180.1,99.4 180.1,99.4 180.1,99.4 180.1,99.3 180.1,99.3 180.6,99.4 181,99.4 181.4,99.3 181.8,99.3 182.2,99.2 
		182.6,99 183,98.9 183.4,98.7 183.4,98.7 183.4,98.7 183.4,98.7 	"/>
	<polygon class="st9" points="180.2,99.3 180.2,99.4 180.2,99.4 180.1,99.4 180.1,99.4 179.5,99.3 178.8,99.2 178.1,99 177.5,98.8 
		176.9,98.6 176.2,98.4 176.2,98.4 176.2,98.4 176.2,98.4 176.2,98.3 176.2,98.3 176.9,98.6 177.5,98.8 178.2,99 178.8,99.1 
		179.5,99.3 180.1,99.3 180.1,99.3 	"/>
	<polygon class="st9" points="176.3,98.3 176.2,98.4 176.2,98.4 176.2,98.4 176.2,98.4 176,98.2 175.7,98.1 175.5,97.9 175.3,97.6 
		175.2,97.4 175,97.1 174.9,96.8 174.9,96.6 174.9,96.3 174.9,96.3 174.9,96.2 174.9,96.2 174.9,96.2 174.9,96.3 174.9,96.6 
		175,96.8 175.1,97.1 175.2,97.4 175.4,97.6 175.6,97.8 175.8,98 176,98.2 176.2,98.3 	"/>
	<polygon class="st9" points="176.2,93.4 176.2,93.4 175.9,93.7 175.7,94.1 175.5,94.4 175.3,94.8 175.2,95.1 175,95.5 175,95.9 
		174.9,96.3 174.9,96.3 174.9,96.3 174.9,96.3 174.9,96.3 174.9,96.2 174.9,95.9 175,95.5 175.1,95.1 175.3,94.7 175.4,94.4 
		175.6,94 175.9,93.7 176.1,93.4 176.1,93.4 176.1,93.4 176.1,93.4 	"/>
	<polygon class="st9" points="177.2,93.3 177.2,93.3 177.2,93.3 177.1,93.3 177,93.3 176.8,93.2 176.7,93.2 176.5,93.2 176.4,93.3 
		176.3,93.3 176.2,93.4 176.1,93.5 176.1,93.4 176.1,93.4 176.1,93.4 176.1,93.4 176.2,93.3 176.4,93.2 176.5,93.2 176.7,93.1 
		176.9,93.2 177,93.2 177.1,93.3 177.2,93.3 	"/>
	<polygon class="st9" points="177.7,93.9 177.7,93.9 177.6,94 177.6,93.9 177.5,93.7 177.3,93.5 177.1,93.3 177.1,93.3 177.1,93.3 
		177.1,93.3 177.2,93.3 177.2,93.3 177.4,93.5 177.5,93.7 177.7,93.9 177.7,93.9 	"/>
	<polygon class="st9" points="178.8,95.8 178.8,95.9 178.8,95.9 178.7,95.8 178.7,95.8 178.7,95.8 177.6,93.9 177.6,93.9 
		177.7,93.9 177.7,93.9 177.7,93.9 177.7,93.9 178.8,95.8 	"/>
	<polygon class="st9" points="180.2,97.3 180.2,97.3 180.2,97.3 180.1,97.3 180.1,97.3 179.8,97.1 179.5,96.8 179.2,96.5 179,96.2 
		178.8,95.9 178.7,95.8 178.7,95.8 178.7,95.8 178.7,95.8 178.8,95.8 178.8,95.8 179,96.2 179.3,96.5 179.5,96.8 179.8,97 
		180.2,97.3 	"/>
	<polygon class="st9" points="183.1,98 183.1,98.1 183.1,98.1 183.1,98.1 183.1,98.1 183.1,98.1 182.7,98.1 182.2,98 181.8,97.9 
		181.4,97.8 180.9,97.7 180.5,97.5 180.2,97.3 180.1,97.3 180.1,97.3 180.1,97.3 180.1,97.3 180.2,97.3 180.6,97.5 181,97.6 
		181.4,97.8 181.8,97.9 182.2,98 182.7,98 183.1,98 183.1,98 	"/>
	<polygon class="st9" points="183.2,97.2 183.2,97.2 183.2,97.2 183.2,97.2 182.8,97 182.5,96.7 182.2,96.4 181.9,96.1 181.6,95.8 
		181.4,95.5 181.2,95.1 181,94.7 181,94.7 181,94.7 181,94.7 181,94.7 181.1,94.7 181.2,95.1 181.4,95.4 181.7,95.8 181.9,96.1 
		182.2,96.4 182.5,96.7 182.9,96.9 183.2,97.2 183.2,97.2 	"/>
	<polygon class="st9" points="181.1,94.7 181,94.7 181,94.7 181,94.7 181,94.7 180.7,94.1 180.5,93.5 180.3,92.8 180.1,92.2 
		180,91.5 179.9,90.8 179.9,90.8 179.9,90.8 179.9,90.8 180,90.8 180,90.8 180.1,91.5 180.2,92.1 180.4,92.8 180.6,93.4 180.8,94.1 
		181.1,94.7 	"/>
	<polygon class="st9" points="181.1,88.6 181.1,88.6 180.9,88.8 180.6,89 180.5,89.2 180.3,89.4 180.2,89.7 180.1,90 180,90.2 
		180,90.5 180,90.8 180,90.8 179.9,90.8 179.9,90.8 179.9,90.8 179.9,90.8 179.9,90.5 179.9,90.2 180,89.9 180.1,89.7 180.2,89.4 
		180.4,89.2 180.6,88.9 180.8,88.7 181,88.6 181.1,88.6 181.1,88.6 181.1,88.6 	"/>
	<polygon class="st9" points="184.2,88.2 184.2,88.3 184.2,88.3 184.2,88.3 183.8,88.2 183.4,88.2 183,88.2 182.6,88.2 182.2,88.3 
		181.8,88.4 181.5,88.5 181.1,88.6 181.1,88.6 181,88.6 181,88.6 181.1,88.6 181.1,88.6 181.4,88.4 181.8,88.3 182.2,88.2 
		182.6,88.2 183,88.1 183.4,88.1 183.8,88.2 184.2,88.2 184.2,88.2 	"/>
	<polygon class="st9" points="184.8,89.1 184.8,89.1 184.7,89.1 184.7,89.1 184.7,88.9 184.7,88.8 184.6,88.6 184.5,88.5 
		184.4,88.4 184.3,88.3 184.2,88.3 184.1,88.3 184.2,88.2 184.2,88.2 184.2,88.2 184.2,88.3 184.3,88.3 184.5,88.4 184.6,88.5 
		184.7,88.6 184.8,88.8 184.8,88.9 184.8,89.1 184.8,89.1 	"/>
	<polygon class="st9" points="184.8,89.1 184.8,89.1 184.8,89.1 184.7,89.3 184.6,89.6 184.5,89.8 184.5,89.8 184.5,89.9 
		184.5,89.9 184.5,89.8 184.5,89.8 184.6,89.6 184.7,89.3 184.7,89.1 184.7,89 184.8,89.1 	"/>
	<polygon class="st9" points="184.5,89.8 184.5,89.8 184.5,89.9 183.4,91.7 183.4,91.8 183.4,91.8 183.4,91.8 183.4,91.7 
		183.4,91.7 184.5,89.8 184.5,89.8 184.5,89.8 	"/>
	<polygon class="st9" points="183.4,91.7 183.4,91.7 183.2,92.1 183.1,92.5 183,92.9 182.9,93.3 182.8,93.7 182.8,93.7 182.8,93.7 
		182.8,93.7 182.8,93.7 182.8,93.7 182.8,93.3 182.9,92.9 183,92.5 183.2,92.1 183.4,91.8 183.4,91.7 183.4,91.7 183.4,91.7 	"/>
	<polygon class="st9" points="183.7,96.6 183.7,96.6 183.6,96.7 183.6,96.7 183.6,96.6 183.6,96.6 183.4,96.2 183.2,95.8 
		183.1,95.4 182.9,95 182.9,94.6 182.8,94.1 182.8,93.7 182.8,93.7 182.8,93.7 182.8,93.7 182.8,93.7 182.8,93.7 182.9,94.1 
		182.9,94.6 183,95 183.1,95.4 183.3,95.8 183.5,96.2 183.7,96.6 183.7,96.6 	"/>
	<polygon class="st9" points="184.5,96.3 184.5,96.3 184.4,96.3 184.2,96.3 184,96.4 183.8,96.5 183.7,96.6 183.7,96.6 183.6,96.7 
		183.6,96.7 183.6,96.6 183.6,96.6 183.6,96.6 183.7,96.6 183.8,96.5 184,96.4 184.2,96.3 184.4,96.3 184.5,96.2 184.5,96.3 	"/>
	<polygon class="st9" points="183.2,97.2 183.2,97.2 183.2,97.2 183.2,97.4 183.1,97.6 183.1,97.8 183.1,98 183.1,98.1 183.1,98.1 
		183.1,98.1 183.1,98.1 183.1,98.1 183.1,98.1 183.1,98 183.1,97.8 183.1,97.6 183.1,97.4 183.2,97.2 183.2,97.2 183.2,97.2 	"/>
	<polygon class="st9" points="184.1,99.2 184.1,99.2 184.1,99.2 184.1,99.3 184.1,99.3 184,99.2 183.9,99.2 183.7,99 183.5,98.9 
		183.4,98.7 183.3,98.7 183.4,98.7 183.4,98.7 183.4,98.7 183.4,98.7 183.6,98.9 183.7,99 183.9,99.1 184.1,99.2 184.1,99.2 	"/>
	<polygon class="st9" points="185.6,99 185.6,99 185.6,99 185.4,99.1 185.2,99.2 185,99.3 184.8,99.3 184.8,99.4 184.8,99.3 
		184.8,99.3 184.8,99.3 184.8,99.3 185,99.3 185.2,99.2 185.4,99.1 185.5,99 185.6,99 185.6,98.9 185.6,98.9 185.6,99 	"/>
	<polygon class="st9" points="186.2,97.8 186.2,98 186.1,98.2 186,98.4 186,98.4 186,98.4 186,98.4 186,98.4 186,98.4 186.1,98.2 
		186.1,98 186.1,97.8 186.1,97.6 186.1,97.6 186.1,97.5 186.1,97.5 186.1,97.5 186.1,97.5 186.1,97.5 186.2,97.6 	"/>
	<polygon class="st9" points="194.3,99.3 194.3,99.7 194.2,100.1 194.1,100.5 193.9,100.8 193.7,101.2 193.5,101.5 193.3,101.9 
		193.1,102.2 192.9,102.3 192.8,102.3 192.7,102.4 192.5,102.4 192.4,102.4 192.2,102.3 192.1,102.3 191.9,102.1 191.7,101.9 
		191.6,101.7 190.5,99.8 190.5,99.8 190.5,99.8 190.5,99.8 190.5,99.7 190.5,99.7 190.3,99.4 190,99.1 189.7,98.8 189.4,98.5 
		189.1,98.3 189.1,98.3 189.1,98.3 189.1,98.3 189.1,98.3 188.7,98.1 188.3,97.9 187.9,97.8 187.4,97.7 187,97.6 186.6,97.5 
		186.1,97.5 186.1,97.5 186.1,97.5 186.1,97.5 186.1,97.5 186.1,97.5 186.1,97.6 186.1,97.6 186.1,97.6 186.1,97.8 186.1,98 
		186.1,98.2 186,98.4 186,98.4 186,98.4 186,98.4 186,98.4 186.4,98.7 186.7,98.9 187,99.2 187.3,99.5 187.5,99.8 187.8,100.2 
		188,100.5 188.2,100.9 188.4,101.5 188.7,102.2 188.9,102.8 189,103.5 189.2,104.1 189.2,104.8 189.3,105.1 189.2,105.4 
		189.2,105.6 189.1,105.9 188.9,106.2 188.8,106.4 188.6,106.6 188.4,106.8 188.1,107 187.8,107.1 187.4,107.2 187,107.3 
		186.6,107.4 186.2,107.4 185.8,107.4 185.4,107.4 185.1,107.3 184.9,107.3 184.8,107.2 184.7,107.1 184.6,107 184.5,106.8 
		184.5,106.7 184.5,106.5 184.6,106.3 184.6,106 184.8,105.8 185.8,103.9 185.8,103.9 185.9,103.9 185.9,103.8 185.9,103.8 
		186,103.5 186.2,103.1 186.3,102.7 186.4,102.3 186.4,101.9 186.4,101.9 186.4,101.9 186.4,101.9 186.4,101.9 186.4,101.5 
		186.4,101 186.3,100.6 186.2,100.2 186,99.8 185.8,99.4 185.6,99 185.6,99 185.6,99 185.6,98.9 185.6,98.9 185.6,98.9 185.6,99 
		185.5,99 185.5,99 185.4,99.1 185.2,99.2 185,99.3 184.8,99.3 184.8,99.3 184.8,99.3 184.8,99.3 184.8,99.3 184.7,99.7 
		184.7,100.1 184.6,100.6 184.5,101 184.3,101.3 184.1,101.7 183.9,102.1 183.7,102.4 183.3,103 182.9,103.5 182.4,104 181.9,104.4 
		181.4,104.9 180.9,105.3 180.6,105.5 180.4,105.6 180.1,105.7 179.8,105.7 179.5,105.7 179.2,105.7 179,105.6 178.7,105.6 
		178.4,105.4 178.1,105.2 177.8,104.9 177.6,104.6 177.3,104.3 177.1,104 176.9,103.7 176.7,103.3 176.6,102.9 176.6,102.8 
		176.6,102.6 176.6,102.5 176.7,102.4 176.8,102.2 176.9,102.1 177,102.1 177.2,102 177.5,101.9 177.8,101.9 180,101.9 180,101.9 
		180,101.9 180,101.9 180,101.9 180.4,101.9 180.8,101.8 181.2,101.7 181.6,101.6 181.9,101.4 181.9,101.5 182,101.4 182,101.4 
		182,101.4 182.3,101.2 182.7,100.9 183,100.6 183.3,100.3 183.6,100 183.9,99.6 184.1,99.3 184.1,99.3 184.1,99.2 184.1,99.2 
		184.1,99.2 184.1,99.2 184.1,99.2 184.1,99.2 184.1,99.2 183.9,99.1 183.7,99 183.6,98.9 183.4,98.7 183.4,98.7 183.4,98.7 
		183.4,98.7 183.4,98.7 183,98.9 182.6,99 182.2,99.2 181.8,99.3 181.4,99.3 181,99.4 180.6,99.4 180.1,99.3 180.1,99.3 179.5,99.3 
		178.8,99.1 178.2,99 177.5,98.8 176.9,98.6 176.2,98.3 176,98.2 175.8,98 175.6,97.8 175.4,97.6 175.2,97.4 175.1,97.1 175,96.8 
		174.9,96.6 174.9,96.3 175,95.9 175,95.5 175.2,95.1 175.3,94.8 175.5,94.4 175.7,94.1 175.9,93.7 176.2,93.4 176.3,93.3 
		176.4,93.3 176.5,93.2 176.7,93.2 176.8,93.2 177,93.3 177.1,93.3 177.3,93.5 177.5,93.7 177.6,93.9 178.7,95.8 178.7,95.8 
		178.7,95.8 178.7,95.8 178.8,95.9 178.8,95.9 179,96.2 179.2,96.5 179.5,96.8 179.8,97.1 180.1,97.3 180.1,97.3 180.1,97.3 
		180.2,97.3 180.2,97.3 180.5,97.5 180.9,97.7 181.4,97.8 181.8,97.9 182.2,98 182.7,98.1 183.1,98.1 183.1,98.1 183.1,98.1 
		183.1,98.1 183.1,98.1 183.1,98.1 183.1,98.1 183.1,98 183.1,98 183.1,97.8 183.1,97.6 183.2,97.4 183.2,97.2 183.2,97.2 
		183.2,97.2 183.2,97.2 183.2,97.2 182.9,96.9 182.5,96.7 182.2,96.4 181.9,96.1 181.7,95.8 181.4,95.4 181.2,95.1 181.1,94.7 
		180.8,94.1 180.6,93.4 180.4,92.8 180.2,92.1 180.1,91.5 180,90.8 180,90.5 180,90.2 180.1,90 180.2,89.7 180.3,89.4 180.5,89.2 
		180.6,89 180.9,88.8 181.1,88.6 181.5,88.5 181.8,88.4 182.2,88.3 182.6,88.2 183,88.2 183.4,88.2 183.8,88.2 184.2,88.3 
		184.3,88.3 184.4,88.4 184.5,88.5 184.6,88.6 184.7,88.8 184.7,88.9 184.7,89.1 184.7,89.3 184.6,89.6 184.5,89.8 183.4,91.7 
		183.4,91.7 183.4,91.7 183.4,91.8 183.4,91.8 183.2,92.1 183,92.5 182.9,92.9 182.8,93.3 182.8,93.7 182.8,93.7 182.8,93.7 
		182.8,93.7 182.8,93.7 182.8,94.1 182.9,94.6 182.9,95 183.1,95.4 183.2,95.8 183.4,96.2 183.6,96.6 183.6,96.6 183.6,96.6 
		183.6,96.7 183.6,96.7 183.6,96.7 183.7,96.6 183.7,96.6 183.7,96.6 183.8,96.5 184,96.4 184.2,96.3 184.4,96.3 184.5,96.3 
		184.5,96.3 184.5,96.3 184.5,96.3 184.5,95.9 184.5,95.4 184.6,95 184.7,94.6 184.9,94.2 185.1,93.9 185.3,93.5 185.5,93.2 
		185.9,92.6 186.4,92.1 186.8,91.6 187.3,91.1 187.8,90.7 188.3,90.3 188.6,90.1 188.8,90 189.1,89.9 189.4,89.9 189.7,89.9 
		190,89.9 190.3,89.9 190.5,90 190.8,90.2 191.1,90.4 191.4,90.7 191.7,91 191.9,91.3 192.1,91.6 192.3,91.9 192.5,92.3 192.6,92.7 
		192.6,92.8 192.6,93 192.6,93.1 192.6,93.2 192.5,93.4 192.4,93.5 192.2,93.5 192,93.6 191.7,93.7 191.4,93.7 189.3,93.7 
		189.3,93.7 189.2,93.7 189.2,93.7 189.2,93.7 188.8,93.7 188.4,93.8 188,93.9 187.6,94 187.3,94.2 187.3,94.1 187.3,94.2 
		187.2,94.2 187.2,94.2 186.9,94.4 186.5,94.7 186.2,95 185.9,95.3 185.6,95.6 185.4,96 185.1,96.3 185.1,96.3 185.1,96.4 
		185.1,96.4 185.1,96.4 185.1,96.4 185.1,96.4 185.2,96.4 185.2,96.4 185.3,96.5 185.5,96.6 185.7,96.7 185.8,96.9 185.8,96.9 
		185.8,96.9 185.8,96.9 185.9,96.9 186.2,96.7 186.6,96.6 187,96.4 187.4,96.3 187.8,96.3 188.2,96.2 188.7,96.2 189.1,96.3 
		189.7,96.3 190.4,96.5 191.1,96.6 191.7,96.8 192.4,97 193,97.3 193.2,97.4 193.5,97.6 193.7,97.8 193.9,98 194,98.2 194.1,98.5 
		194.2,98.8 194.3,99 	"/>
	<polygon class="st9" points="185.9,96.9 185.9,96.9 185.8,96.9 185.8,96.9 185.8,96.9 185.7,96.7 185.5,96.6 185.3,96.5 
		185.2,96.4 185.1,96.4 185.1,96.4 185.1,96.4 185.1,96.4 185.1,96.3 185.1,96.3 185.2,96.4 185.4,96.4 185.5,96.6 185.7,96.7 
		185.8,96.8 	"/>
</g>
<linearGradient id="SVGID_3_" gradientUnits="userSpaceOnUse" x1="82.3215" y1="29.5" x2="82.3215" y2="22.5">
	<stop  offset="0" style="stop-color:#666666"/>
	<stop  offset="0.3452" style="stop-color:#C5C5C5"/>
	<stop  offset="0.5255" style="stop-color:#F2F2F2"/>
	<stop  offset="0.8372" style="stop-color:#939393"/>
	<stop  offset="1" style="stop-color:#666666"/>
</linearGradient>
<rect x="79.8" y="22.5" class="st10" width="5" height="7"/>
<polygon class="st5" points="89.8,134 85.8,134 85.8,16.2 85.8,7 89.8,7 "/>
<polygon class="st5" points="119.8,134 115.8,134 115.8,16.2 115.8,7 119.8,7 "/>
<rect x="75.8" y="20" class="st0" width="3" height="12"/>
<linearGradient id="SVGID_4_" gradientUnits="userSpaceOnUse" x1="-516.3215" y1="29.5" x2="-516.3215" y2="22.5" gradientTransform="matrix(-1 0 0 1 -393 0)">
	<stop  offset="0" style="stop-color:#666666"/>
	<stop  offset="0.3452" style="stop-color:#C5C5C5"/>
	<stop  offset="0.5255" style="stop-color:#F2F2F2"/>
	<stop  offset="0.8372" style="stop-color:#939393"/>
	<stop  offset="1" style="stop-color:#666666"/>
</linearGradient>
<rect x="120.8" y="22.5" class="st11" width="5" height="7"/>
<rect x="126.8" y="20" class="st0" width="3" height="12"/>
<linearGradient id="SVGID_5_" gradientUnits="userSpaceOnUse" x1="82.3215" y1="100.9" x2="82.3215" y2="93.9">
	<stop  offset="0" style="stop-color:#666666"/>
	<stop  offset="0.3452" style="stop-color:#C5C5C5"/>
	<stop  offset="0.5255" style="stop-color:#F2F2F2"/>
	<stop  offset="0.8372" style="stop-color:#939393"/>
	<stop  offset="1" style="stop-color:#666666"/>
</linearGradient>
<rect x="79.8" y="93.9" class="st12" width="5" height="7"/>
<rect x="75.8" y="91.4" class="st0" width="3" height="12"/>
<linearGradient id="SVGID_6_" gradientUnits="userSpaceOnUse" x1="-516.5" y1="100.9" x2="-516.5" y2="93.9" gradientTransform="matrix(-1 0 0 1 -393 0)">
	<stop  offset="0" style="stop-color:#666666"/>
	<stop  offset="0.3452" style="stop-color:#C5C5C5"/>
	<stop  offset="0.5255" style="stop-color:#F2F2F2"/>
	<stop  offset="0.8372" style="stop-color:#939393"/>
	<stop  offset="1" style="stop-color:#666666"/>
</linearGradient>
<rect x="121" y="93.9" class="st13" width="5" height="7"/>
<rect x="127" y="91.4" class="st0" width="3" height="12"/>
<g>
	<g>
		<line class="st14" x1="91.8" y1="116.2" x2="91.8" y2="14.6"/>
	</g>
	<g>
		<line class="st14" x1="97.3" y1="116.2" x2="97.3" y2="14.6"/>
	</g>
	<g>
		<line class="st14" x1="102.8" y1="116.2" x2="102.8" y2="14.6"/>
	</g>
	<g>
		<line class="st14" x1="108.3" y1="116.2" x2="108.3" y2="14.6"/>
	</g>
	<g>
		<line class="st14" x1="94.6" y1="116.2" x2="94.6" y2="14.6"/>
	</g>
	<g>
		<line class="st14" x1="100.1" y1="116.2" x2="100.1" y2="14.6"/>
	</g>
	<g>
		<line class="st14" x1="105.6" y1="116.2" x2="105.6" y2="14.6"/>
	</g>
	<g>
		<line class="st14" x1="111.1" y1="116.2" x2="111.1" y2="14.6"/>
	</g>
	<g>
		<line class="st14" x1="113.8" y1="116.2" x2="113.8" y2="14.6"/>
	</g>
</g>
<line class="st15" x1="90.8" y1="19.6" x2="114.8" y2="19.6"/>
<line class="st15" x1="90.8" y1="33" x2="114.8" y2="33"/>
<line class="st15" x1="90.8" y1="90.9" x2="114.8" y2="90.9"/>
<line class="st15" x1="90.8" y1="104.3" x2="114.8" y2="104.3"/>
<linearGradient id="SVGID_7_" gradientUnits="userSpaceOnUse" x1="-448.1608" y1="29.5" x2="-448.1608" y2="22.5" gradientTransform="matrix(-1 0 0 1 -393 0)">
	<stop  offset="0" style="stop-color:#666666"/>
	<stop  offset="0.3452" style="stop-color:#C5C5C5"/>
	<stop  offset="0.5255" style="stop-color:#F2F2F2"/>
	<stop  offset="0.8372" style="stop-color:#939393"/>
	<stop  offset="1" style="stop-color:#666666"/>
</linearGradient>
<rect x="35.5" y="22.5" class="st16" width="39.3" height="7"/>
<linearGradient id="SVGID_8_" gradientUnits="userSpaceOnUse" x1="-448.1608" y1="100.9" x2="-448.1608" y2="93.9" gradientTransform="matrix(-1 0 0 1 -393 0)">
	<stop  offset="0" style="stop-color:#666666"/>
	<stop  offset="0.3452" style="stop-color:#C5C5C5"/>
	<stop  offset="0.5255" style="stop-color:#F2F2F2"/>
	<stop  offset="0.8372" style="stop-color:#939393"/>
	<stop  offset="1" style="stop-color:#666666"/>
</linearGradient>
<rect x="35.5" y="93.9" class="st17" width="39.3" height="7"/>
<g>
	<g>
		<g>
			<text transform="matrix(1 0 0 1 145.9244 71.614)"><tspan x="0" y="0" class="st0 st1 st2">二回温度</tspan><tspan x="40" y="0" class="st0 st1 st3">              ℃</tspan></text>
		</g>
	</g>
	<rect x="189.7" y="61.1" class="st4" width="35.3" height="14.1"/>
</g>
<linearGradient id="SVGID_9_" gradientUnits="userSpaceOnUse" x1="-584.4108" y1="29.5" x2="-584.4108" y2="22.5" gradientTransform="matrix(-1 0 0 1 -393 0)">
	<stop  offset="0" style="stop-color:#666666"/>
	<stop  offset="0.3452" style="stop-color:#C5C5C5"/>
	<stop  offset="0.5255" style="stop-color:#F2F2F2"/>
	<stop  offset="0.8372" style="stop-color:#939393"/>
	<stop  offset="1" style="stop-color:#666666"/>
</linearGradient>
<rect x="130.8" y="22.5" class="st18" width="121.2" height="7"/>
</svg>
