<?xml version="1.0" standalone="no"?><!DOCTYPE svg PUBLIC "-//W3C//DTD SVG 1.1//EN" "http://www.w3.org/Graphics/SVG/1.1/DTD/svg11.dtd"><svg t="1590309149604" class="icon" viewBox="0 0 1024 1024" version="1.1" xmlns="http://www.w3.org/2000/svg" p-id="3114" width="40" height="40" xmlns:xlink="http://www.w3.org/1999/xlink"><defs><style type="text/css"></style></defs><path d="M512 128c211.2 0 384 172.8 384 384s-172.8 384-384 384-384-172.8-384-384 172.8-384 384-384m0-128C230.4 0 0 230.4 0 512s230.4 512 512 512 512-230.4 512-512-230.4-512-512-512z" fill="#0099CC" p-id="3115"></path><path d="M640 268.8c32 25.6 44.8 64 44.8 108.8 0 38.4-6.4 70.4-25.6 96-6.4 6.4-32 32-64 57.6-12.8 12.8-25.6 25.6-32 44.8-6.4 12.8-12.8 32-12.8 51.2v12.8H460.8v-12.8c0-32 6.4-57.6 12.8-76.8 12.8-19.2 38.4-51.2 89.6-96l12.8-12.8c12.8-19.2 19.2-38.4 19.2-57.6 0-25.6-6.4-44.8-19.2-57.6-12.8-12.8-32-19.2-64-19.2s-57.6 12.8-70.4 32c-12.8 12.8-19.2 38.4-19.2 70.4H339.2c0-57.6 19.2-102.4 51.2-134.4s76.8-51.2 134.4-51.2c44.8 6.4 89.6 19.2 115.2 44.8z m-89.6 422.4c12.8 12.8 19.2 25.6 19.2 38.4 0 19.2-6.4 32-19.2 44.8-12.8 12.8-25.6 19.2-44.8 19.2-19.2 0-32-6.4-38.4-19.2-12.8-12.8-19.2-25.6-19.2-44.8 0-19.2 6.4-32 19.2-38.4 12.8-12.8 25.6-19.2 38.4-19.2 19.2 0 32 6.4 44.8 19.2z" fill="#0099CC" p-id="3116"></path></svg>