<?xml version="1.0" standalone="no"?><!DOCTYPE svg PUBLIC "-//W3C//DTD SVG 1.1//EN" "http://www.w3.org/Graphics/SVG/1.1/DTD/svg11.dtd"><svg t="1590307345143" class="icon" viewBox="0 0 1024 1024" version="1.1" xmlns="http://www.w3.org/2000/svg" p-id="2254" xmlns:xlink="http://www.w3.org/1999/xlink" width="40" height="40"><defs><style type="text/css"></style></defs><path d="M879.514 873.308c0 20.173-16.364 36.557-36.537 36.557H115.16c-20.173 0-36.536-16.384-36.536-36.557V150.692c0-20.173 16.363-36.536 36.536-36.536h626.79l51.57-67.83H74.014c-33.485 0-60.621 27.197-60.621 60.743V916.91c0 33.546 27.136 60.744 60.62 60.744h810.108c33.464 0 60.6-27.198 60.6-60.744V517.407l-65.208 19.988v335.913z m0 0" p-id="2255"></path><path d="M346.48 776.93l664.126-595.928-32.87-65.945-664.31 595.722 33.055 66.15z m0 0" p-id="2256"></path></svg>