<?xml version="1.0" standalone="no"?><!DOCTYPE svg PUBLIC "-//W3C//DTD SVG 1.1//EN" "http://www.w3.org/Graphics/SVG/1.1/DTD/svg11.dtd"><svg t="1589545541976" class="icon" viewBox="0 0 1024 1024" version="1.1" xmlns="http://www.w3.org/2000/svg" p-id="3218" width="40" height="40" xmlns:xlink="http://www.w3.org/1999/xlink"><defs><style type="text/css"></style></defs><path d="M688 96a304.32 304.32 0 0 0-304 304v288a48 48 0 0 1-96 0v-608a48 48 0 0 0-96 0v608a143.68 143.68 0 0 0 288 9.6 46.4 46.4 0 0 0 0-9.6v-288a208 208 0 0 1 416 0v352a48 48 0 0 0 96 0v-352A304.32 304.32 0 0 0 688 96z" p-id="3219" fill="#0099CC"></path><path d="M688 256a143.68 143.68 0 0 0-144 134.4 46.4 46.4 0 0 0 0 9.6v288a208 208 0 0 1-416 0v-608a48 48 0 0 0-96 0v608a304 304 0 0 0 608 0v-288a48 48 0 0 1 96 0v352a48 48 0 0 0 96 0v-352A144.32 144.32 0 0 0 688 256z" p-id="3220" fill="#0099CC"></path></svg>