<?xml version="1.0" standalone="no"?><!DOCTYPE svg PUBLIC "-//W3C//DTD SVG 1.1//EN" "http://www.w3.org/Graphics/SVG/1.1/DTD/svg11.dtd"><svg t="1589545573011" class="icon" viewBox="0 0 1024 1024" version="1.1" xmlns="http://www.w3.org/2000/svg" p-id="4685" width="40" height="40" xmlns:xlink="http://www.w3.org/1999/xlink"><defs><style type="text/css"></style></defs><path d="M128 1024c-72.533333 0-128-55.466667-128-128s55.466667-128 128-128 128 55.466667 128 128S200.533333 1024 128 1024zM128 853.333333c-25.6 0-42.666667 17.066667-42.666667 42.666667s17.066667 42.666667 42.666667 42.666667 42.666667-17.066667 42.666667-42.666667S153.6 853.333333 128 853.333333z" p-id="4686" fill="#0099CC"></path><path d="M896 1024c-72.533333 0-128-55.466667-128-128s55.466667-128 128-128 128 55.466667 128 128S968.533333 1024 896 1024zM896 853.333333c-25.6 0-42.666667 17.066667-42.666667 42.666667s17.066667 42.666667 42.666667 42.666667 42.666667-17.066667 42.666667-42.666667S921.6 853.333333 896 853.333333z" p-id="4687" fill="#0099CC"></path><path d="M512 1024c-72.533333 0-128-55.466667-128-128s55.466667-128 128-128 128 55.466667 128 128S584.533333 1024 512 1024zM512 853.333333c-25.6 0-42.666667 17.066667-42.666667 42.666667s17.066667 42.666667 42.666667 42.666667 42.666667-17.066667 42.666667-42.666667S537.6 853.333333 512 853.333333z" p-id="4688" fill="#0099CC"></path><path d="M512 256c-72.533333 0-128-55.466667-128-128s55.466667-128 128-128 128 55.466667 128 128S584.533333 256 512 256zM512 85.333333c-25.6 0-42.666667 17.066667-42.666667 42.666667s17.066667 42.666667 42.666667 42.666667 42.666667-17.066667 42.666667-42.666667S537.6 85.333333 512 85.333333z" p-id="4689" fill="#0099CC"></path><path d="M896 853.333333c-25.6 0-42.666667-17.066667-42.666667-42.666667l0-213.333333c0-25.6-17.066667-42.666667-42.666667-42.666667L213.333333 554.666667c-25.6 0-42.666667 17.066667-42.666667 42.666667l0 213.333333c0 25.6-17.066667 42.666667-42.666667 42.666667s-42.666667-17.066667-42.666667-42.666667l0-213.333333c0-72.533333 55.466667-128 128-128l597.333333 0c72.533333 0 128 55.466667 128 128l0 213.333333C938.666667 836.266667 921.6 853.333333 896 853.333333z" p-id="4690" fill="#0099CC"></path><path d="M512 853.333333c-25.6 0-42.666667-17.066667-42.666667-42.666667l0-298.666667c0-25.6 17.066667-42.666667 42.666667-42.666667s42.666667 17.066667 42.666667 42.666667l0 298.666667C554.666667 836.266667 537.6 853.333333 512 853.333333z" p-id="4691" fill="#0099CC"></path><path d="M512 554.666667c-25.6 0-42.666667-17.066667-42.666667-42.666667L469.333333 213.333333c0-25.6 17.066667-42.666667 42.666667-42.666667s42.666667 17.066667 42.666667 42.666667l0 298.666667C554.666667 537.6 537.6 554.666667 512 554.666667z" p-id="4692" fill="#0099CC"></path></svg>